# xmcd CD database file
#
# Track frame offsets:
#	183
#	37908
#	53433
#	69033
#	99858
#	116083
#	135295
#	164433
#	204483
#	227208
#	253608
#
# Disc length: 3689 seconds
#
# Revision: 2
# Processed by: cddbd v1.5.1PL0 Copyright (c) Steve Scherf et al.
# Submitted via: CDex 1.51
#
DISCID=820e670b
DTITLE=Various Artist - Jazz-Club Mainstream - Piano
DYEAR=1991
DGENRE=Jazz
TTITLE0=Teddy Wilson With The Krupa-Hampton-Wilson Quartet - Avalon
TTITLE1=Duke Ellington And His Orchestra - Portrait Of Ella Fitzgerald
TTITLE2=Count Basie And His Orchestra - The New Basie Blues
TTITLE3=Earl Hines Quartet - Backroom At The Villa d'Este
TTITLE4=Art Tatum - Willow Weep For Me
TTITLE5=Nat 'King' Cole With The Lester Young (Buddy Rich Trio) - Mean To Me
TTITLE6=Mary Lou Williams With The Benny Goodman Orchestra - Roll 'Em
TTITLE7=Jimmy Jones With Harry Edison and Buck Clayton - Memories For The Count
TTITLE8=Nat Pierce With Woody Herman and His Orchestra - Bedroom Eyes
TTITLE9=Oscar Peterson With JATP - Tenderly
TTITLE10=Milt Buckner Trio - Feelin' Sorta Villingen
EXTD=YEAR: 1991
EXTT0=
EXTT1=
EXTT2=
EXTT3=
EXTT4=
EXTT5=
EXTT6=
EXTT7=
EXTT8=
EXTT9=
EXTT10=
PLAYORDER=
